<?xml version="1.0" encoding="utf-8"?>
<!-- Generator: Adobe Illustrator 24.0.0, SVG Export Plug-In . SVG Version: 6.00 Build 0)  -->
<svg version="1.1" id="Layer_1" xmlns="http://www.w3.org/2000/svg" xmlns:xlink="http://www.w3.org/1999/xlink" x="0px" y="0px"
	 viewBox="0 0 1255.58 881" style="enable-background:new 0 0 1255.58 881;" xml:space="preserve">
<style type="text/css">
	.st0{fill:#4189C7;}
	.st1{fill:#EBC639;}
	.st2{fill:#F9F9F9;}
	.st3{fill:#F2F2F2;}
	.st4{fill:#FFFFFF;}
	.st5{fill:#E8E8E8;}
	.st6{fill:#3BA636;}
	.st7{fill:#C0BEBF;}
	.st8{fill:#312F30;}
	.st9{fill:#C2BFC0;}
	.st10{fill:#EAE9EA;}
	.st11{fill:#F2F2F3;}
	.st12{fill:#329637;}
	.st13{fill:#F4F4F5;}
	.st14{fill:#5B585B;}
	.st15{clip-path:url(#SVGID_2_);}
	.st16{fill:#343147;}
	.st17{fill:#4389C9;}
	.st18{fill:none;stroke:#4389C9;stroke-width:5;stroke-miterlimit:10;}
	.st19{clip-path:url(#SVGID_4_);fill:#827F80;}
</style>
<circle class="st0" cx="575.89" cy="255.17" r="8"/>
<circle class="st1" cx="743.12" cy="185.58" r="8"/>
<circle class="st2" cx="689.14" cy="209.99" r="45.72"/>
<circle class="st3" cx="476.45" cy="248.5" r="34.45"/>
<circle class="st1" cx="787.34" cy="381.76" r="28.25"/>
<circle class="st1" cx="1066.8" cy="176" r="34.45"/>
<circle class="st0" cx="350.44" cy="320.62" r="18.29"/>
<circle class="st4" cx="441.02" cy="378.07" r="11.43"/>
<circle class="st4" cx="468.89" cy="129.52" r="70.86"/>
<circle class="st5" cx="1192.24" cy="207.73" r="18.21"/>
<circle class="st6" cx="1192.24" cy="542.62" r="25.15"/>
<circle class="st0" cx="924.5" cy="282.4" r="157.73"/>
<circle class="st4" cx="924.5" cy="282.4" r="137.16"/>
<g>
	<rect x="862.46" y="169.97" transform="matrix(0.866 -0.5 0.5 0.866 26.6132 456.1295)" class="st7" width="4" height="16.86"/>
	<rect x="818.5" y="213.93" transform="matrix(0.5 -0.866 0.866 0.5 217.6823 821.754)" class="st7" width="4" height="16.86"/>
	<rect x="795.98" y="280.4" class="st7" width="16.86" height="4"/>
	<rect x="812.07" y="340.45" transform="matrix(0.866 -0.5 0.5 0.866 -61.2964 456.1295)" class="st7" width="16.86" height="4"/>
	<rect x="856.03" y="384.4" transform="matrix(0.5 -0.866 0.866 0.5 97.5955 941.8407)" class="st7" width="16.86" height="4"/>
	<rect x="922.5" y="394.06" class="st7" width="4" height="16.86"/>
	<rect x="982.54" y="377.97" transform="matrix(0.866 -0.5 0.5 0.866 -61.2964 544.039)" class="st7" width="4" height="16.86"/>
	<rect x="1026.5" y="334.02" transform="matrix(0.5 -0.866 0.866 0.5 217.6823 1061.9274)" class="st7" width="4" height="16.86"/>
	<rect x="1036.16" y="280.4" class="st7" width="16.86" height="4"/>
	<rect x="1020.07" y="220.36" transform="matrix(0.866 -0.5 0.5 0.866 26.6132 544.039)" class="st7" width="16.86" height="4"/>
	<rect x="976.11" y="176.4" transform="matrix(0.5 -0.866 0.866 0.5 337.769 941.8407)" class="st7" width="16.86" height="4"/>
	<rect x="922.5" y="153.89" class="st7" width="4" height="16.86"/>
</g>
<g>
	<path class="st8" d="M923.37,284.4c-0.86,0-1.71-0.44-2.19-1.23L888,229.08c-0.74-1.21-0.36-2.79,0.85-3.54
		c1.21-0.75,2.8-0.36,3.54,0.85l33.17,54.1c0.74,1.21,0.36,2.79-0.85,3.54C924.29,284.28,923.83,284.4,923.37,284.4z"/>
</g>
<g>
	<path class="st8" d="M1033.75,315.32c-0.15,0-0.31-0.02-0.46-0.06l-110.3-30.66c-0.91-0.25-1.45-1.2-1.19-2.11
		c0.25-0.91,1.2-1.44,2.11-1.19l110.3,30.66c0.91,0.25,1.45,1.2,1.19,2.11C1035.19,314.82,1034.5,315.32,1033.75,315.32z"/>
</g>
<g>
	<g>
		<path class="st6" d="M573.25,307.78c1.71,2.47,3.32,4.78,4.85,6.98c1.53,2.2,2.97,4.28,4.36,6.28c1.39,2,2.73,3.93,4.04,5.82
			c1.31,1.89,2.6,3.74,3.88,5.59c1.28,1.85,2.57,3.7,3.88,5.59c1.31,1.89,2.65,3.82,4.04,5.82c1.39,2,2.84,4.09,4.36,6.28
			c1.53,2.2,3.13,4.51,4.85,6.98c-1.82,2.64-3.64,5.11-5.47,7.43c-1.83,2.32-3.67,4.51-5.5,6.57c-1.84,2.06-3.67,4-5.51,5.85
			c-1.84,1.84-3.68,3.59-5.52,5.25c-1.85,1.66-3.7,3.25-5.57,4.76c-1.87,1.52-3.75,2.97-5.66,4.37c-1.91,1.4-3.85,2.74-5.83,4.05
			c-1.98,1.3-4,2.56-6.07,3.78c-2.07,1.22-4.21,2.4-6.41,3.55c-2.2,1.15-4.48,2.26-6.85,3.34c-2.37,1.08-4.83,2.12-7.4,3.12
			s-5.26,1.96-8.08,2.86c-2.82,0.9-5.77,1.75-8.88,2.53c-1.71-2.47-3.32-4.78-4.85-6.98c-1.53-2.2-2.97-4.28-4.36-6.28
			c-1.39-2-2.73-3.93-4.04-5.82c-1.31-1.89-2.6-3.74-3.88-5.59c-1.29-1.85-2.57-3.7-3.88-5.59c-1.31-1.89-2.65-3.82-4.04-5.82
			c-1.39-2-2.84-4.09-4.36-6.28c-1.53-2.2-3.13-4.51-4.85-6.98c3.11-0.78,6.06-1.63,8.88-2.53c2.82-0.9,5.5-1.86,8.08-2.86
			c2.57-1,5.03-2.04,7.4-3.12c2.37-1.08,4.65-2.19,6.85-3.34c2.2-1.15,4.33-2.33,6.41-3.55c2.07-1.22,4.09-2.48,6.07-3.78
			c1.98-1.3,3.92-2.65,5.83-4.05c1.91-1.4,3.8-2.85,5.66-4.37c1.87-1.52,3.72-3.1,5.57-4.76c1.85-1.66,3.69-3.41,5.52-5.25
			c1.84-1.84,3.67-3.78,5.51-5.85c1.84-2.06,3.67-4.24,5.5-6.57C569.61,312.89,571.44,310.42,573.25,307.78z"/>
		<path class="st4" d="M600.38,357.22c-2,2.65-3.99,5.09-5.97,7.38c-1.98,2.29-3.95,4.42-5.91,6.42c-1.96,2-3.9,3.87-5.85,5.65
			c-1.94,1.77-3.88,3.44-5.83,5.04c-1.95,1.59-3.91,3.11-5.9,4.57c-1.99,1.46-4,2.85-6.06,4.21c-2.06,1.35-4.16,2.66-6.34,3.93
			c-2.17,1.27-4.42,2.5-6.76,3.71c-2.34,1.2-4.77,2.37-7.33,3.51c-2.56,1.14-5.24,2.24-8.08,3.29c-2.84,1.06-5.83,2.07-9,3.01
			c-1.82-2.62-3.49-5.03-5.06-7.29c-1.57-2.26-3.04-4.37-4.45-6.41c-1.42-2.04-2.78-4.01-4.15-5.97c-1.37-1.97-2.73-3.93-4.15-5.97
			c-1.42-2.04-2.88-4.15-4.45-6.41c-1.57-2.26-3.24-4.66-5.06-7.29c3.18-0.95,6.17-1.96,9-3.01c2.84-1.06,5.52-2.16,8.08-3.29
			s4.99-2.31,7.33-3.51c2.34-1.2,4.58-2.44,6.76-3.71c2.17-1.27,4.28-2.58,6.34-3.93c2.06-1.35,4.07-2.75,6.06-4.21
			c1.99-1.46,3.95-2.97,5.9-4.57c1.95-1.59,3.89-3.27,5.83-5.04s3.89-3.65,5.85-5.65c1.96-2,3.93-4.13,5.91-6.42
			c1.98-2.29,3.97-4.74,5.97-7.38c1.82,2.62,3.49,5.03,5.06,7.29c1.57,2.26,3.04,4.37,4.45,6.41c1.42,2.04,2.78,4.01,4.15,5.97
			c1.37,1.97,2.73,3.93,4.15,5.97c1.42,2.04,2.88,4.15,4.45,6.41C596.89,352.19,598.55,354.59,600.38,357.22z"/>
		<path class="st6" d="M545.72,356.44c2.3-1.6,4.84-2.56,7.36-2.87c2.52-0.32,5.04,0.01,7.32,0.98s4.32,2.59,5.9,4.86
			c1.57,2.27,2.48,4.89,2.73,7.56c0.25,2.67-0.15,5.4-1.19,7.85c-1.04,2.45-2.72,4.63-5.03,6.23c-2.3,1.6-4.93,2.41-7.6,2.53
			c-2.66,0.12-5.35-0.46-7.77-1.63s-4.56-2.93-6.13-5.2c-1.57-2.27-2.38-4.75-2.49-7.22c-0.11-2.47,0.46-4.94,1.64-7.2
			C541.63,360.07,543.41,358.03,545.72,356.44z"/>
		<path class="st6" d="M524.41,403.68c1.41-0.42,3-0.35,4.45,0.12c1.45,0.47,2.74,1.34,3.56,2.51c1.63,2.34,0.7,5.02-2.11,5.86
			c-1.41,0.42-3.02,0.3-4.49-0.22c-1.46-0.52-2.78-1.43-3.59-2.6C520.59,407.01,521.59,404.52,524.41,403.68z"/>
		<path class="st6" d="M497.09,364.34c1.41-0.42,3-0.35,4.45,0.12c1.45,0.47,2.74,1.34,3.56,2.51c1.63,2.34,0.7,5.02-2.11,5.86
			c-1.41,0.42-3.02,0.3-4.49-0.22s-2.78-1.43-3.59-2.6C493.27,367.66,494.27,365.18,497.09,364.34z"/>
		<path class="st6" d="M597.43,352.97c1.77-2.34,4.45-2.41,6.08-0.07c0.81,1.17,1.21,2.72,1.18,4.28c-0.03,1.55-0.48,3.11-1.37,4.28
			c-1.77,2.34-4.6,2.28-6.23-0.07c-0.81-1.17-1.17-2.69-1.11-4.21C596.05,355.67,596.54,354.14,597.43,352.97z"/>
		<path class="st6" d="M570.11,313.63c1.77-2.34,4.45-2.41,6.08-0.07c0.81,1.17,1.21,2.72,1.18,4.28c-0.03,1.55-0.48,3.11-1.37,4.28
			c-1.77,2.34-4.6,2.28-6.23-0.07c-0.81-1.17-1.17-2.69-1.11-4.21C568.73,316.32,569.22,314.8,570.11,313.63z"/>
	</g>
</g>
<g>
	<g>
		<path class="st6" d="M463.24,205.92c-3.09,1.4-5.88,2.67-8.48,3.85c-2.6,1.18-5.01,2.27-7.36,3.34c-2.35,1.07-4.64,2.11-6.99,3.17
			c-2.35,1.07-4.77,2.16-7.36,3.34c-2.6,1.18-5.38,2.44-8.48,3.85c-2.32-2.31-4.38-4.59-6.26-6.84c-1.87-2.25-3.56-4.46-5.09-6.65
			c-1.54-2.19-2.93-4.35-4.2-6.51c-1.28-2.16-2.44-4.31-3.52-6.48c-1.08-2.17-2.07-4.36-2.99-6.6c-0.92-2.24-1.77-4.54-2.55-6.92
			c-0.78-2.38-1.49-4.85-2.13-7.45c-0.63-2.6-1.19-5.32-1.65-8.21c-0.46-2.89-0.81-5.95-1.02-9.21c3.09-1.4,5.88-2.67,8.48-3.85
			c2.6-1.18,5.01-2.27,7.36-3.34c2.35-1.07,4.64-2.11,6.99-3.17c2.35-1.07,4.77-2.16,7.36-3.34c2.6-1.18,5.38-2.44,8.48-3.85
			c0.21,3.26,0.57,6.32,1.02,9.21c0.46,2.89,1.01,5.61,1.65,8.21c0.63,2.6,1.35,5.07,2.13,7.45c0.78,2.38,1.63,4.68,2.55,6.92
			c0.92,2.24,1.91,4.43,2.99,6.6s2.25,4.32,3.52,6.48c1.28,2.16,2.67,4.32,4.2,6.51c1.54,2.19,3.22,4.4,5.09,6.65
			C458.86,201.33,460.93,203.61,463.24,205.92z"/>
		<path class="st4" d="M425.41,218.48c-2.18-2.37-4.1-4.69-5.84-6.96c-1.73-2.27-3.28-4.48-4.68-6.66c-1.4-2.18-2.67-4.33-3.83-6.47
			c-1.16-2.14-2.23-4.28-3.21-6.46c-0.99-2.17-1.9-4.38-2.74-6.67c-0.85-2.29-1.63-4.65-2.34-7.14c-0.72-2.49-1.37-5.11-1.93-7.91
			c-0.56-2.8-1.04-5.77-1.39-8.97c3.08-1.4,5.78-2.62,8.29-3.76c2.51-1.14,4.82-2.19,7.13-3.23c2.31-1.05,4.63-2.1,7.13-3.23
			c2.51-1.14,5.2-2.36,8.29-3.76c0.35,3.2,0.83,6.18,1.39,8.97c0.56,2.8,1.21,5.42,1.93,7.91c0.72,2.49,1.5,4.86,2.34,7.14
			c0.85,2.29,1.76,4.5,2.74,6.67c0.99,2.17,2.05,4.31,3.21,6.46c1.16,2.14,2.43,4.29,3.83,6.47c1.4,2.18,2.95,4.39,4.68,6.66
			c1.73,2.27,3.66,4.58,5.84,6.96c-3.08,1.4-5.78,2.62-8.29,3.76c-2.51,1.14-4.82,2.19-7.13,3.23c-2.31,1.05-4.63,2.1-7.13,3.23
			C431.19,215.86,428.5,217.08,425.41,218.48z"/>
		<path class="st6" d="M432.92,180.57c1.23,2.71,1.39,5.59,0.58,8.09c-0.81,2.5-2.6,4.63-5.26,5.84c-1.78,0.81-3.71,1.1-5.61,0.93
			c-1.89-0.16-3.74-0.79-5.31-1.82c-1.57-1.04-2.88-2.48-3.69-4.29c-0.82-1.81-1.05-3.74-0.79-5.61c0.26-1.87,1-3.66,2.12-5.2
			c1.12-1.53,2.62-2.8,4.4-3.6c2.66-1.21,5.44-1.15,7.86-0.11C429.63,175.84,431.69,177.86,432.92,180.57z"/>
		<path class="st6" d="M402.78,159.73c0.23,2.06-1.01,4.4-2.85,5.23c-1.84,0.83-3.58-0.15-3.8-2.22s1.15-4.43,2.99-5.26
			C400.95,156.66,402.55,157.67,402.78,159.73z"/>
		<path class="st6" d="M433.61,145.75c0.23,2.06-1.01,4.4-2.85,5.23c-1.84,0.83-3.58-0.15-3.8-2.22c-0.23-2.06,1.15-4.43,2.99-5.26
			C431.79,142.67,433.39,143.68,433.61,145.75z"/>
		<path class="st6" d="M428.74,216.97c1.41,1.53,1.11,3.4-0.73,4.23c-1.84,0.83-4.52,0.31-5.93-1.22c-1.41-1.53-1-3.49,0.84-4.32
			C424.76,214.84,427.33,215.44,428.74,216.97z"/>
		<path class="st6" d="M459.58,202.98c1.41,1.53,1.11,3.4-0.73,4.23c-1.84,0.83-4.52,0.31-5.93-1.22c-1.41-1.53-1-3.49,0.84-4.32
			C455.6,200.85,458.17,201.45,459.58,202.98z"/>
	</g>
</g>
<g>
	<g>
		<path class="st6" d="M715.45,191.6c-0.81,2.89-1.57,5.6-2.29,8.18c-0.72,2.58-1.41,5.02-2.07,7.37c-0.66,2.35-1.29,4.61-1.91,6.82
			c-0.62,2.21-1.23,4.38-1.84,6.55c-0.61,2.17-1.22,4.34-1.84,6.55c-0.62,2.21-1.26,4.47-1.91,6.82c-0.66,2.35-1.34,4.79-2.07,7.37
			c-0.72,2.58-1.48,5.29-2.29,8.18c-3.19,0.28-6.26,0.44-9.22,0.51c-2.96,0.07-5.81,0.04-8.57-0.06s-5.42-0.28-8.01-0.52
			c-2.59-0.24-5.11-0.55-7.57-0.91c-2.46-0.36-4.86-0.79-7.22-1.26c-2.36-0.47-4.68-1-6.98-1.59c-2.3-0.58-4.57-1.22-6.83-1.92
			c-2.26-0.7-4.52-1.45-6.78-2.27c-2.26-0.82-4.53-1.71-6.82-2.68c-2.29-0.97-4.6-2.01-6.94-3.15c-2.34-1.14-4.71-2.37-7.12-3.72
			c-2.41-1.35-4.86-2.81-7.35-4.41c-2.49-1.6-5.03-3.33-7.61-5.23c0.81-2.89,1.57-5.6,2.29-8.18c0.72-2.58,1.41-5.02,2.07-7.37
			c0.66-2.35,1.29-4.61,1.91-6.82c0.62-2.21,1.23-4.38,1.84-6.55c0.61-2.17,1.22-4.34,1.84-6.55c0.62-2.21,1.26-4.47,1.91-6.82
			c0.66-2.35,1.34-4.79,2.07-7.37c0.72-2.58,1.48-5.29,2.29-8.18c2.58,1.9,5.11,3.63,7.61,5.23c2.49,1.6,4.94,3.06,7.35,4.4
			c2.41,1.35,4.78,2.58,7.12,3.72c2.34,1.14,4.65,2.19,6.94,3.15c2.29,0.97,4.56,1.86,6.82,2.68c2.26,0.82,4.52,1.58,6.78,2.27
			c2.26,0.7,4.54,1.33,6.83,1.92c2.3,0.58,4.62,1.11,6.98,1.59c2.36,0.47,4.76,0.9,7.22,1.26c2.46,0.36,4.97,0.67,7.57,0.91
			c2.59,0.24,5.26,0.42,8.02,0.52c2.76,0.1,5.61,0.13,8.57,0.06C709.19,192.04,712.26,191.88,715.45,191.6z"/>
		<path class="st4" d="M694.6,243.99c-3.31,0.14-6.47,0.17-9.49,0.1c-3.03-0.07-5.92-0.23-8.71-0.47c-2.79-0.24-5.47-0.54-8.08-0.91
			c-2.6-0.37-5.13-0.8-7.6-1.29c-2.47-0.49-4.89-1.03-7.27-1.64s-4.75-1.27-7.1-1.99s-4.7-1.52-7.07-2.39
			c-2.36-0.87-4.74-1.81-7.16-2.85c-2.42-1.04-4.87-2.17-7.37-3.42s-5.06-2.62-7.68-4.13c-2.62-1.51-5.3-3.18-8.06-5.02
			c0.86-3.07,1.65-5.89,2.4-8.54c0.74-2.65,1.44-5.12,2.11-7.52s1.32-4.7,1.96-7c0.65-2.31,1.29-4.61,1.96-7
			c0.67-2.39,1.37-4.87,2.11-7.52c0.74-2.65,1.53-5.47,2.4-8.54c2.75,1.85,5.44,3.51,8.06,5.02c2.62,1.51,5.18,2.88,7.68,4.13
			c2.5,1.25,4.96,2.38,7.37,3.42c2.42,1.04,4.8,1.98,7.16,2.85c2.36,0.87,4.71,1.66,7.07,2.39c2.35,0.73,4.71,1.39,7.1,1.99
			s4.8,1.15,7.27,1.64c2.47,0.49,4.99,0.92,7.6,1.29c2.6,0.37,5.29,0.68,8.08,0.91c2.79,0.24,5.68,0.4,8.71,0.47
			c3.03,0.07,6.18,0.05,9.49-0.1c-0.86,3.07-1.65,5.89-2.4,8.54s-1.44,5.12-2.11,7.52s-1.32,4.7-1.96,7c-0.65,2.31-1.29,4.61-1.96,7
			s-1.37,4.87-2.11,7.52S695.46,240.92,694.6,243.99z"/>
		<path class="st6" d="M660.39,201.35c2.7,0.76,5.05,2.1,6.9,3.85c1.85,1.74,3.2,3.89,3.91,6.26c0.7,2.38,0.75,4.98,0.01,7.64
			c-0.75,2.66-2.19,5.02-4.09,6.92c-1.9,1.9-4.26,3.33-6.81,4.09c-2.55,0.76-5.31,0.85-8.01,0.09c-2.7-0.76-5-2.27-6.79-4.24
			c-1.79-1.98-3.05-4.42-3.69-7.03s-0.64-5.38,0.1-8.04s2.15-4.86,3.98-6.52c1.83-1.66,4.11-2.79,6.59-3.32
			C654.99,200.52,657.69,200.59,660.39,201.35z"/>
		<path class="st6" d="M610.39,215c1.22,0.82,2.18,2.09,2.74,3.51c0.56,1.41,0.72,2.97,0.33,4.34c-0.77,2.75-3.42,3.74-5.86,2.1
			c-1.22-0.82-2.16-2.14-2.69-3.6c-0.53-1.46-0.67-3.06-0.28-4.43C605.4,214.18,607.95,213.36,610.39,215z"/>
		<path class="st6" d="M623.33,168.88c1.22,0.82,2.18,2.09,2.74,3.51c0.56,1.41,0.72,2.97,0.33,4.34c-0.77,2.75-3.42,3.74-5.86,2.1
			c-1.22-0.82-2.16-2.14-2.69-3.6c-0.53-1.46-0.67-3.06-0.28-4.43C618.34,168.06,620.89,167.25,623.33,168.88z"/>
		<path class="st6" d="M695.99,239.02c2.93-0.13,4.69,1.9,3.92,4.64c-0.39,1.37-1.33,2.67-2.54,3.64c-1.21,0.97-2.7,1.61-4.17,1.67
			c-2.93,0.13-4.68-2.09-3.91-4.84c0.39-1.37,1.33-2.62,2.54-3.54C693.04,239.67,694.52,239.08,695.99,239.02z"/>
		<path class="st6" d="M708.93,192.9c2.93-0.13,4.69,1.9,3.92,4.64c-0.39,1.37-1.33,2.67-2.54,3.64c-1.21,0.97-2.7,1.61-4.17,1.67
			c-2.93,0.13-4.68-2.09-3.91-4.84c0.39-1.37,1.33-2.62,2.54-3.54C705.98,193.56,707.46,192.96,708.93,192.9z"/>
	</g>
</g>
<circle class="st8" cx="924.5" cy="282.4" r="9.14"/>
<polygon class="st9" points="941.66,720.98 897.13,741.27 265.09,741.27 135.3,800.39 811.86,800.39 941.66,741.27 "/>
<polygon class="st10" points="767.33,800.38 90.77,800.38 265.09,720.98 941.66,720.98 "/>
<path class="st10" d="M315.07,688.29l255.73,11.03l15.9,3.19l-23.58,22.35l-134.27,47.84c0,0-44.55,0.56-47.72,0
	c-3.17-0.56-52.08-11.37-52.08-11.37L315.07,688.29z"/>
<polygon class="st4" points="405.11,750.68 234.58,750.68 357.13,710.55 527.65,710.55 "/>
<path class="st11" d="M593.77,691.92c-1.15,5.63-6.64,10.19-12.27,10.19H235.78c-5.63,0-9.26-4.56-8.12-10.19l44-216.11
	c1.15-5.63,6.64-10.19,12.27-10.19h345.72c5.63,0,9.26,4.56,8.12,10.19L593.77,691.92z"/>
<polygon class="st7" points="578.72,680.71 247.27,680.71 286.7,487.03 618.15,487.03 "/>
<polygon class="st5" points="584.63,566.54 289.88,566.54 301.09,511.49 595.84,511.49 "/>
<polygon class="st5" points="561.39,680.71 266.64,680.71 286.36,583.87 581.1,583.87 "/>
<ellipse transform="matrix(0.742 -0.6703 0.6703 0.742 -208.0061 413.0599)" class="st8" cx="432.71" cy="476.8" rx="4.2" ry="3.43"/>
<path class="st12" d="M156.24,511.49c0,0-43.09,17.29-63.5,27.52c-17.04,8.55-22.24,34.6-24.69,52.22
	c-4.03,29.05-3.12,79.58-0.68,123.6c1.69,30.5,64.84,81.71,146.61,85.58c46.79,2.21,80.11,0,80.11,0L369.91,646
	c0,0,3.4-80.83-55-108.94c-47.05-22.65-56.72-26.96-56.72-26.96L156.24,511.49z"/>
<rect x="351.01" y="761.32" class="st13" width="60.21" height="22.74"/>
<path class="st6" d="M308.96,542.01c-9.12,0.91-27.14,11.21-33.73,40.42c-6.76,29.95-7.34,74.41-2.1,122.27
	c5.24,47.86,12.08,95.68,12.08,95.68h100.76c0,0-4.19-84.15-7.69-117.69C374.8,649.16,362.61,536.67,308.96,542.01z"/>
<path class="st14" d="M287.03,766.31c4.8,19.29-6.95,34.94-26.25,34.94H107.06c-19.29,0-38.83-15.64-43.62-34.94L35.06,652.19
	c-4.8-19.29,6.95-34.94,26.25-34.94h153.72c19.29,0,38.83,15.64,43.62,34.94L287.03,766.31z"/>
<path class="st9" d="M162.15,475.51c0,0,1.49,22.42-5.91,35.98c0,0,55.83,28.26,101.94-1.39c0,0-3.39-18.12-2.57-31.29
	c0.82-13.18,3.43-25.7,23.04-27.4c16.69-1.44,24.28-2.05,24.64-25.44c0,0-15.92-5.17-19.63-11.76c0,0,11.23,2.47,20.29-2.06
	c0,0-0.39-6.14-0.33-7.95c0.07-1.95,0.64-3.35,5.9-3.88s6.59-1.71,7.24-4.5c0.59-2.55-3.59-5.9-8.06-12.48s-10.09-13.61-9.17-24
	s0.16-19.49-0.9-31.72c-1.05-12.23-2.92-16.73-4.71-19.75c-1.98-3.36-7.81-13.91-7.81-13.91l-54.97,59.96l-43.53,90.6L162.15,475.51
	z"/>
<path class="st8" d="M305.44,260.16c0,0,8.68,27.55-11.5,47.73c0,0-1.83-3.02-6.62-7.79c0,0,3.29,44.88-43.23,65.06
	c0,0-4.12-5.35-11.94,0s-9.06,15.24-6.18,22.65c2.88,7.41,5.76,5.76,9.47,4.94c0,0-0.78,29.65-10.89,50.65
	c-10.11,21-12.99,30.06-62.4,32.12c0,0,2.07-16.23-27.01-46.48c-31.87-33.14-40.15-75.59-10.83-99.43c0,0,0.14-59.72,64.37-66.43
	c65.53-6.85,88.07,12.59,101.53,9.34C302.14,269.63,305.44,260.16,305.44,260.16z"/>
<g>
	<defs>
		<path id="SVGID_1_" d="M287.03,766.31c4.8,19.29-6.95,34.94-26.25,34.94H107.06c-19.29,0-38.83-15.64-43.62-34.94L35.06,652.19
			c-4.8-19.29,6.95-34.94,26.25-34.94h153.72c19.29,0,38.83,15.64,43.62,34.94L287.03,766.31z"/>
	</defs>
	<clipPath id="SVGID_2_">
		<use xlink:href="#SVGID_1_"  style="overflow:visible;"/>
	</clipPath>
	<g class="st15">
		<g>
			<path class="st13" d="M133.62,860.5c-3.97,0-7.56-2.72-8.5-6.76l-37.73-162.1c-1.09-4.7,1.83-9.39,6.53-10.49
				c4.7-1.09,9.39,1.83,10.49,6.53l37.73,162.1c1.09,4.7-1.83,9.39-6.53,10.49C134.94,860.43,134.27,860.5,133.62,860.5z"/>
		</g>
		<g>
			<path class="st13" d="M237.43,860.5c-3.97,0-7.56-2.72-8.5-6.76l-37.73-162.1c-1.09-4.7,1.83-9.39,6.53-10.49
				c4.7-1.09,9.39,1.83,10.49,6.53l37.73,162.1c1.09,4.7-1.83,9.39-6.53,10.49C238.75,860.43,238.09,860.5,237.43,860.5z"/>
		</g>
	</g>
</g>
<polygon class="st9" points="411.04,783.67 586.59,725.25 586.69,702.51 411.15,760.93 "/>
<ellipse class="st4" cx="608.51" cy="713.48" rx="5.01" ry="11.37"/>
<path class="st16" d="M625.85,742.58c0,0,35.13,1.82,38.46-0.94s6.11-11.92,4.09-19.2c-2.01-7.28-25.14-8.55-25.14-8.55
	l-17.42,15.56V742.58z"/>
<path class="st9" d="M555.5,748.68c0,0,12.68-6.98,22.49-21.12c6.27-9.04,21.42-24.96,25.75-24.77s8.26-3.14,13.37-2.75
	s8.65,2.16,11.4,2.16s7.47-2.36,11.4-0.79c3.93,1.57,7.47,3.54,9.63,3.73c2.16,0.2,8.26,0.59,10.81,2.75s8.26,8.06,8.06,14.55
	c0,0-4.13-2.36-10.02-2.75c-5.9-0.39-12.38,0.59-16.51,4.32c-4.13,3.73-9.24,8.84-11.79,17.69c-2.56,8.84-16.12,15.37-28.45,23.46
	C589.01,773.44,555.5,748.68,555.5,748.68z"/>
<path class="st6" d="M404.9,800.39l159-61.45c0,0,30.2,20.2,51.63,22.99l-41.6,38.46L404.9,800.39z"/>
<g>
	<path class="st17" d="M795.98,688.03c0,0-17.62,4.89-36.34,4.89s-33.91-4.89-33.91-4.89c0,19.82,3.59,89.13,22.22,89.13h23.39
		C791.31,777.16,795.98,707.85,795.98,688.03z"/>
</g>
<ellipse transform="matrix(0.151 -0.9885 0.9885 0.151 -27.522 1394.2437)" class="st18" cx="797.94" cy="713.14" rx="15" ry="9.38"/>
<ellipse class="st16" cx="760.86" cy="688.03" rx="35.13" ry="7.33"/>
<path class="st10" d="M754.54,667.16c0,0,3.44-14.37-9.36-32.9c-12.8-18.53-27.1-40.82-24.04-60.93s9.9-26.37,16.17-36.31
	c6.5-10.33,11.86-24.86,11.86-40.54c0-13.3,5.35-47.01,30.85-47.01c27.66,0,24.6,44.33,12.37,65.51
	c-5.56,9.64-28.62,42.03-26.09,62.65c2.52,20.62,17.32,34.4,16.25,52.69c-1.07,18.29-16.84,34.92-19.49,37.34
	C760.39,670.1,754.25,675.03,754.54,667.16z"/>
<g>
	<defs>
		<path id="SVGID_3_" d="M162.15,475.51c0,0,0.82,21.41-2.47,34.59c0,0,52.39,29.65,98.51,0c0,0-3.39-18.12-2.57-31.29
			c0.82-13.18,3.43-25.7,23.04-27.4c16.69-1.44,24.28-2.05,24.64-25.44c0,0-15.92-5.17-19.63-11.76c0,0,11.23,2.47,20.29-2.06
			c0,0-0.39-6.14-0.33-7.95c0.07-1.95,0.64-3.35,5.9-3.88s6.59-1.71,7.24-4.5c0.59-2.55-3.59-5.9-8.06-12.48s-10.09-13.61-9.17-24
			s0.16-19.49-0.9-31.72c-1.05-12.23-2.92-16.73-4.71-19.75c-1.98-3.36-7.81-13.91-7.81-13.91l-54.97,59.96l-43.53,90.6
			L162.15,475.51z"/>
	</defs>
	<clipPath id="SVGID_4_">
		<use xlink:href="#SVGID_3_"  style="overflow:visible;"/>
	</clipPath>
	<path class="st19" d="M278.66,451.41c0,0-17.61-1.03-24.49,2.41c-6.88,3.44,1.69,21.28,1.56,36.42
		C255.6,505.39,278.66,451.41,278.66,451.41z"/>
</g>
</svg>
